# Original candle mesh. Single animated atlas: stable wax left, flame right.
g candle
usemtl candle
v 0.0700000 -0.4600000 0.0000000
vt 0.0000000 0.5500000
v 0.0700000 0.2300000 0.0000000
vt 0.0000000 0.9350000
v 0.0606218 0.2300000 0.0350000
vt 0.0416667 0.9350000
v 0.0606218 -0.4600000 0.0350000
vt 0.0416667 0.5500000
f 1/1 2/2 3/3
f 1/1 3/3 4/4
v 0.0000000 0.2300000 0.0000000
vt 0.2500000 0.7500000
v 0.0606218 0.2300000 0.0350000
vt 0.3366025 0.8000000
v 0.0700000 0.2300000 0.0000000
vt 0.3500000 0.7500000
f 5/5 6/6 7/7
v 0.0000000 -0.4600000 0.0000000
vt 0.2500000 0.7500000
v 0.0700000 -0.4600000 0.0000000
vt 0.3366025 0.8000000
v 0.0606218 -0.4600000 0.0350000
vt 0.3500000 0.7500000
f 8/8 9/9 10/10
v 0.0606218 -0.4600000 0.0350000
vt 0.0416667 0.5500000
v 0.0606218 0.2300000 0.0350000
vt 0.0416667 0.9350000
v 0.0350000 0.2300000 0.0606218
vt 0.0833333 0.9350000
v 0.0350000 -0.4600000 0.0606218
vt 0.0833333 0.5500000
f 11/11 12/12 13/13
f 11/11 13/13 14/14
v 0.0000000 0.2300000 0.0000000
vt 0.2500000 0.7500000
v 0.0350000 0.2300000 0.0606218
vt 0.3000000 0.8366025
v 0.0606218 0.2300000 0.0350000
vt 0.3366025 0.8000000
f 15/15 16/16 17/17
v 0.0000000 -0.4600000 0.0000000
vt 0.2500000 0.7500000
v 0.0606218 -0.4600000 0.0350000
vt 0.3000000 0.8366025
v 0.0350000 -0.4600000 0.0606218
vt 0.3366025 0.8000000
f 18/18 19/19 20/20
v 0.0350000 -0.4600000 0.0606218
vt 0.0833333 0.5500000
v 0.0350000 0.2300000 0.0606218
vt 0.0833333 0.9350000
v 0.0000000 0.2300000 0.0700000
vt 0.1250000 0.9350000
v 0.0000000 -0.4600000 0.0700000
vt 0.1250000 0.5500000
f 21/21 22/22 23/23
f 21/21 23/23 24/24
v 0.0000000 0.2300000 0.0000000
vt 0.2500000 0.7500000
v 0.0000000 0.2300000 0.0700000
vt 0.2500000 0.8500000
v 0.0350000 0.2300000 0.0606218
vt 0.3000000 0.8366025
f 25/25 26/26 27/27
v 0.0000000 -0.4600000 0.0000000
vt 0.2500000 0.7500000
v 0.0350000 -0.4600000 0.0606218
vt 0.2500000 0.8500000
v 0.0000000 -0.4600000 0.0700000
vt 0.3000000 0.8366025
f 28/28 29/29 30/30
v 0.0000000 -0.4600000 0.0700000
vt 0.1250000 0.5500000
v 0.0000000 0.2300000 0.0700000
vt 0.1250000 0.9350000
v -0.0350000 0.2300000 0.0606218
vt 0.1666667 0.9350000
v -0.0350000 -0.4600000 0.0606218
vt 0.1666667 0.5500000
f 31/31 32/32 33/33
f 31/31 33/33 34/34
v 0.0000000 0.2300000 0.0000000
vt 0.2500000 0.7500000
v -0.0350000 0.2300000 0.0606218
vt 0.2000000 0.8366025
v 0.0000000 0.2300000 0.0700000
vt 0.2500000 0.8500000
f 35/35 36/36 37/37
v 0.0000000 -0.4600000 0.0000000
vt 0.2500000 0.7500000
v 0.0000000 -0.4600000 0.0700000
vt 0.2000000 0.8366025
v -0.0350000 -0.4600000 0.0606218
vt 0.2500000 0.8500000
f 38/38 39/39 40/40
v -0.0350000 -0.4600000 0.0606218
vt 0.1666667 0.5500000
v -0.0350000 0.2300000 0.0606218
vt 0.1666667 0.9350000
v -0.0606218 0.2300000 0.0350000
vt 0.2083333 0.9350000
v -0.0606218 -0.4600000 0.0350000
vt 0.2083333 0.5500000
f 41/41 42/42 43/43
f 41/41 43/43 44/44
v 0.0000000 0.2300000 0.0000000
vt 0.2500000 0.7500000
v -0.0606218 0.2300000 0.0350000
vt 0.1633975 0.8000000
v -0.0350000 0.2300000 0.0606218
vt 0.2000000 0.8366025
f 45/45 46/46 47/47
v 0.0000000 -0.4600000 0.0000000
vt 0.2500000 0.7500000
v -0.0350000 -0.4600000 0.0606218
vt 0.1633975 0.8000000
v -0.0606218 -0.4600000 0.0350000
vt 0.2000000 0.8366025
f 48/48 49/49 50/50
v -0.0606218 -0.4600000 0.0350000
vt 0.2083333 0.5500000
v -0.0606218 0.2300000 0.0350000
vt 0.2083333 0.9350000
v -0.0700000 0.2300000 0.0000000
vt 0.2500000 0.9350000
v -0.0700000 -0.4600000 0.0000000
vt 0.2500000 0.5500000
f 51/51 52/52 53/53
f 51/51 53/53 54/54
v 0.0000000 0.2300000 0.0000000
vt 0.2500000 0.7500000
v -0.0700000 0.2300000 0.0000000
vt 0.1500000 0.7500000
v -0.0606218 0.2300000 0.0350000
vt 0.1633975 0.8000000
f 55/55 56/56 57/57
v 0.0000000 -0.4600000 0.0000000
vt 0.2500000 0.7500000
v -0.0606218 -0.4600000 0.0350000
vt 0.1500000 0.7500000
v -0.0700000 -0.4600000 0.0000000
vt 0.1633975 0.8000000
f 58/58 59/59 60/60
v -0.0700000 -0.4600000 0.0000000
vt 0.2500000 0.5500000
v -0.0700000 0.2300000 0.0000000
vt 0.2500000 0.9350000
v -0.0606218 0.2300000 -0.0350000
vt 0.2916667 0.9350000
v -0.0606218 -0.4600000 -0.0350000
vt 0.2916667 0.5500000
f 61/61 62/62 63/63
f 61/61 63/63 64/64
v 0.0000000 0.2300000 0.0000000
vt 0.2500000 0.7500000
v -0.0606218 0.2300000 -0.0350000
vt 0.1633975 0.7000000
v -0.0700000 0.2300000 0.0000000
vt 0.1500000 0.7500000
f 65/65 66/66 67/67
v 0.0000000 -0.4600000 0.0000000
vt 0.2500000 0.7500000
v -0.0700000 -0.4600000 0.0000000
vt 0.1633975 0.7000000
v -0.0606218 -0.4600000 -0.0350000
vt 0.1500000 0.7500000
f 68/68 69/69 70/70
v -0.0606218 -0.4600000 -0.0350000
vt 0.2916667 0.5500000
v -0.0606218 0.2300000 -0.0350000
vt 0.2916667 0.9350000
v -0.0350000 0.2300000 -0.0606218
vt 0.3333333 0.9350000
v -0.0350000 -0.4600000 -0.0606218
vt 0.3333333 0.5500000
f 71/71 72/72 73/73
f 71/71 73/73 74/74
v 0.0000000 0.2300000 0.0000000
vt 0.2500000 0.7500000
v -0.0350000 0.2300000 -0.0606218
vt 0.2000000 0.6633975
v -0.0606218 0.2300000 -0.0350000
vt 0.1633975 0.7000000
f 75/75 76/76 77/77
v 0.0000000 -0.4600000 0.0000000
vt 0.2500000 0.7500000
v -0.0606218 -0.4600000 -0.0350000
vt 0.2000000 0.6633975
v -0.0350000 -0.4600000 -0.0606218
vt 0.1633975 0.7000000
f 78/78 79/79 80/80
v -0.0350000 -0.4600000 -0.0606218
vt 0.3333333 0.5500000
v -0.0350000 0.2300000 -0.0606218
vt 0.3333333 0.9350000
v -0.0000000 0.2300000 -0.0700000
vt 0.3750000 0.9350000
v -0.0000000 -0.4600000 -0.0700000
vt 0.3750000 0.5500000
f 81/81 82/82 83/83
f 81/81 83/83 84/84
v 0.0000000 0.2300000 0.0000000
vt 0.2500000 0.7500000
v -0.0000000 0.2300000 -0.0700000
vt 0.2500000 0.6500000
v -0.0350000 0.2300000 -0.0606218
vt 0.2000000 0.6633975
f 85/85 86/86 87/87
v 0.0000000 -0.4600000 0.0000000
vt 0.2500000 0.7500000
v -0.0350000 -0.4600000 -0.0606218
vt 0.2500000 0.6500000
v -0.0000000 -0.4600000 -0.0700000
vt 0.2000000 0.6633975
f 88/88 89/89 90/90
v -0.0000000 -0.4600000 -0.0700000
vt 0.3750000 0.5500000
v -0.0000000 0.2300000 -0.0700000
vt 0.3750000 0.9350000
v 0.0350000 0.2300000 -0.0606218
vt 0.4166667 0.9350000
v 0.0350000 -0.4600000 -0.0606218
vt 0.4166667 0.5500000
f 91/91 92/92 93/93
f 91/91 93/93 94/94
v 0.0000000 0.2300000 0.0000000
vt 0.2500000 0.7500000
v 0.0350000 0.2300000 -0.0606218
vt 0.3000000 0.6633975
v -0.0000000 0.2300000 -0.0700000
vt 0.2500000 0.6500000
f 95/95 96/96 97/97
v 0.0000000 -0.4600000 0.0000000
vt 0.2500000 0.7500000
v -0.0000000 -0.4600000 -0.0700000
vt 0.3000000 0.6633975
v 0.0350000 -0.4600000 -0.0606218
vt 0.2500000 0.6500000
f 98/98 99/99 100/100
v 0.0350000 -0.4600000 -0.0606218
vt 0.4166667 0.5500000
v 0.0350000 0.2300000 -0.0606218
vt 0.4166667 0.9350000
v 0.0606218 0.2300000 -0.0350000
vt 0.4583333 0.9350000
v 0.0606218 -0.4600000 -0.0350000
vt 0.4583333 0.5500000
f 101/101 102/102 103/103
f 101/101 103/103 104/104
v 0.0000000 0.2300000 0.0000000
vt 0.2500000 0.7500000
v 0.0606218 0.2300000 -0.0350000
vt 0.3366025 0.7000000
v 0.0350000 0.2300000 -0.0606218
vt 0.3000000 0.6633975
f 105/105 106/106 107/107
v 0.0000000 -0.4600000 0.0000000
vt 0.2500000 0.7500000
v 0.0350000 -0.4600000 -0.0606218
vt 0.3366025 0.7000000
v 0.0606218 -0.4600000 -0.0350000
vt 0.3000000 0.6633975
f 108/108 109/109 110/110
v 0.0606218 -0.4600000 -0.0350000
vt 0.4583333 0.5500000
v 0.0606218 0.2300000 -0.0350000
vt 0.4583333 0.9350000
v 0.0700000 0.2300000 -0.0000000
vt 0.5000000 0.9350000
v 0.0700000 -0.4600000 -0.0000000
vt 0.5000000 0.5500000
f 111/111 112/112 113/113
f 111/111 113/113 114/114
v 0.0000000 0.2300000 0.0000000
vt 0.2500000 0.7500000
v 0.0700000 0.2300000 -0.0000000
vt 0.3500000 0.7500000
v 0.0606218 0.2300000 -0.0350000
vt 0.3366025 0.7000000
f 115/115 116/116 117/117
v 0.0000000 -0.4600000 0.0000000
vt 0.2500000 0.7500000
v 0.0606218 -0.4600000 -0.0350000
vt 0.3500000 0.7500000
v 0.0700000 -0.4600000 -0.0000000
vt 0.3366025 0.7000000
f 118/118 119/119 120/120
v -0.0090000 0.2300000 0.0000000
vt 0.0100000 0.5100000
v 0.0090000 0.2300000 0.0000000
vt 0.0350000 0.5100000
v 0.0090000 0.2750000 0.0000000
vt 0.0350000 0.5350000
v -0.0090000 0.2750000 0.0000000
vt 0.0100000 0.5350000
f 121/121 122/122 123/123
f 121/121 123/123 124/124
v 0.0000000 0.2300000 -0.0090000
vt 0.0100000 0.5100000
v 0.0000000 0.2300000 0.0090000
vt 0.0350000 0.5100000
v 0.0000000 0.2750000 0.0090000
vt 0.0350000 0.5350000
v 0.0000000 0.2750000 -0.0090000
vt 0.0100000 0.5350000
f 125/125 126/126 127/127
f 125/125 127/127 128/128
v -0.1250000 0.2550000 0.0000000
vt 0.5000000 0.5000000
v 0.1250000 0.2550000 0.0000000
vt 1.0000000 0.5000000
v 0.1250000 0.4950000 0.0000000
vt 1.0000000 1.0000000
v -0.1250000 0.4950000 0.0000000
vt 0.5000000 1.0000000
f 129/129 130/130 131/131
f 129/129 131/131 132/132
v 0.0000000 0.2550000 -0.1250000
vt 0.5000000 0.5000000
v 0.0000000 0.2550000 0.1250000
vt 1.0000000 0.5000000
v 0.0000000 0.4950000 0.1250000
vt 1.0000000 1.0000000
v 0.0000000 0.4950000 -0.1250000
vt 0.5000000 1.0000000
f 133/133 134/134 135/135
f 133/133 135/135 136/136
